# File created by Blade
# Date/Time:  Tue Sep 30 19:06:18 2014
#---------------------------------------------------------
:version 1.10
:name HOM
:units
  mass 1.0
  length 1.000000
  angle deg
:documentation
     Acclaim Skeleton File
:root
   axis xyz
   order TX TY TZ RX RY RZ
   position 0.000000 0.000000 0.000000
   orientation 0 0 0
:bonedata
   begin
      id 1
      name Spine_dum
      direction 0.000000 1.000000 0.000000
      length 7.508948
      axis 0.0 0.0 0.0 xyz
   end
   begin
      id 2
      name LeftUpLeg_dum
      direction 1.000000 0.000000 0.000000
      length 3.000560
      axis 0.0 0.0 0.0 xyz
   end
   begin
      id 3
      name RightUpLeg_dum
      direction -1.000000 0.000000 0.000000
      length 3.000560
      axis 0.0 0.0 0.0 xyz
   end
   begin
      id 4
      name Spine
      direction 0.000000 1.000000 0.000000
      length 0.000000
      axis 0.0 0.0 0.0 xyz
      dof rx ry rz
   end
   begin
      id 5
      name Spine_dum1
      direction 0.000000 1.000000 0.000000
      length 13.861154
      axis 0.0 0.0 0.0 xyz
   end
   begin
      id 6
      name Spine_dum2
      direction 0.000000 1.000000 0.000000
      length 8.204781
      axis 0.0 0.0 0.0 xyz
   end
   begin
      id 7
      name Spine_dum3
      direction 0.000000 1.000000 0.000000
      length 8.204781
      axis 0.0 0.0 0.0 xyz
   end
   begin
      id 8
      name Head
      direction 0.000000 1.000000 0.000000
      length 4.527550
      axis 0.0 0.0 0.0 xyz
      dof rx ry rz
   end
   begin
      id 9
      name LeftShoulder
      direction 1.000000 0.000000 0.000000
      length 6.635956
      axis 0.0 0.0 -90.0 xyz
      dof rx ry rz
   end
   begin
      id 10
      name LeftArm
      direction 1.000000 0.000000 0.000000
      length 10.274218
      axis 0.0 0.0 -90.0 xyz
      dof rx ry rz
   end
   begin
      id 11
      name LeftForeArm
      direction 1.000000 0.000000 0.000000
      length 8.522147
      axis 0.0 0.0 -90.0 xyz
      dof ry rz rx
   end
   begin
      id 12
      name LeftHand
      direction 0.000000 0.000000 0.000000
      length 0.000000
      axis 0.0 0.0 -90.0 xyz
      dof rx ry rz
   end
   begin
      id 13
      name LeftHand_dum1
      direction 0.000000 0.000000 0.000000
      length 0.000000
      axis 0.0 0.0 -90.0 xyz
   end
   begin
      id 14
      name LeftHand_dum2
      direction 1.000000 0.000000 0.000000
      length 3.937000
      axis 0.0 0.0 -90.0 xyz
   end
   begin
      id 15
      name LeftHandThumb1
      direction 0.000000 0.000000 1.000000
      length 3.937000
      axis 0.0 0.0 -90.0 xyz
      dof rx rz ry
   end
   begin
      id 16
      name RightShoulder
      direction -1.000000 0.000000 0.000000
      length 6.635956
      axis 0.0 0.0 90.0 xyz
      dof rx ry rz
   end
   begin
      id 17
      name RightArm
      direction -1.000000 0.000000 0.000000
      length 10.274218
      axis 0.0 0.0 90.0 xyz
      dof rx ry rz
   end
   begin
      id 18
      name RightForeArm
      direction -1.000000 0.000000 0.000000
      length 8.522147
      axis 0.0 0.0 90.0 xyz
      dof ry rz rx
   end
   begin
      id 19
      name RightHand
      direction 0.000000 0.000000 0.000000
      length 0.000000
      axis 0.0 0.0 90.0 xyz
      dof rx ry rz
   end
   begin
      id 20
      name RightHand_dum1
      direction 0.000000 0.000000 0.000000
      length 0.000000
      axis 0.0 0.0 90.0 xyz
   end
   begin
      id 21
      name RightHand_dum2
      direction -1.000000 0.000000 0.000000
      length 3.937000
      axis 0.0 0.0 90.0 xyz
   end
   begin
      id 22
      name RightHandThumb1
      direction 0.000000 0.000000 1.000000
      length 3.937000
      axis 0.0 0.0 90.0 xyz
      dof rx rz ry
   end
   begin
      id 23
      name LeftUpLeg
      direction 0.000000 -1.000000 0.000000
      length 16.490845
      axis 0.0 0.0 0.0 xyz
      dof rx ry rz
   end
   begin
      id 24
      name LeftLeg
      direction 0.000000 -1.000000 0.000000
      length 14.556576
      axis 0.0 0.0 0.0 xyz
      dof rx ry rz
   end
   begin
      id 25
      name LeftFoot
      direction 0.000000 -0.258819 0.965926
      length 4.831116
      axis 15.0 0.0 0.0 xyz
      dof rx ry rz
   end
   begin
      id 26
      name LeftToeBase
      direction 0.000000 0.000000 1.000000
      length 2.952750
      axis 0.0 0.0 0.0 xyz
      dof rx ry rz
   end
   begin
      id 27
      name RightUpLeg
      direction 0.000000 -1.000000 0.000000
      length 16.490845
      axis 0.0 0.0 0.0 xyz
      dof rx ry rz
   end
   begin
      id 28
      name RightLeg
      direction 0.000000 -1.000000 0.000000
      length 14.556576
      axis 0.0 0.0 0.0 xyz
      dof rx ry rz
   end
   begin
      id 29
      name RightFoot
      direction 0.000000 -0.258819 0.965926
      length 4.831116
      axis 15.0 0.0 0.0 xyz
      dof rx ry rz
   end
   begin
      id 30
      name RightToeBase
      direction 0.000000 0.000000 1.000000
      length 2.952750
      axis 0.0 0.0 0.0 xyz
      dof rx ry rz
   end
:hierarchy
   begin
      root Spine_dum LeftUpLeg_dum RightUpLeg_dum
      Spine_dum Spine
      LeftUpLeg_dum LeftUpLeg
      RightUpLeg_dum RightUpLeg
      Spine Spine_dum1 Spine_dum2 Spine_dum3
      Spine_dum1 Head
      Spine_dum2 LeftShoulder
      Spine_dum3 RightShoulder
      LeftShoulder LeftArm
      LeftArm LeftForeArm
      LeftForeArm LeftHand
      LeftHand LeftHand_dum1 LeftHand_dum2
      LeftHand_dum1 LeftHandThumb1
      RightShoulder RightArm
      RightArm RightForeArm
      RightForeArm RightHand
      RightHand RightHand_dum1 RightHand_dum2
      RightHand_dum1 RightHandThumb1
      LeftUpLeg LeftLeg
      LeftLeg LeftFoot
      LeftFoot LeftToeBase
      RightUpLeg RightLeg
      RightLeg RightFoot
      RightFoot RightToeBase
   end

# File created by Blade
# Date/Time:  Thu Sep 25 18:39:44 2014
# Frame Rate: 120.000 fps
#------------------------------------------------------
:FULLY-SPECIFIED
:DEGREES
82
root -1.058456 32.952731 -2.813082 11.697607 6.655905 -0.526709
Spine -14.082984 1.913588 0.153449
Head -7.384500 -6.744532 11.619829
LeftShoulder -12.596247 14.785810 27.106302
LeftArm 17.297370 -27.935760 -29.339380
LeftForeArm 12.903204 -0.000000 14.608656
LeftHand -24.128425 -0.000000 -10.319043
LeftHandThumb1 -26.253704 0.000000 33.147579
RightShoulder -21.145521 13.046391 -37.577394
RightArm -6.006684 7.787855 26.295309
RightForeArm -30.294212 -0.000000 14.249987
RightHand -9.791266 0.000000 13.064433
RightHandThumb1 -24.326973 -0.000000 -32.862282
LeftUpLeg -6.819900 4.105563 1.664691
LeftLeg 0.265330 -0.000000 -0.000000
LeftFoot -10.018707 0.781595 -9.858055
LeftToeBase 9.723198 -0.000000 -0.000000
RightUpLeg -6.928481 -6.558161 0.957504
RightLeg 2.598850 -0.000000 -0.000000
RightFoot -9.802090 -4.994611 0.322548
RightToeBase -0.174392 -0.000000 0.000000
83
root -1.058774 32.953498 -2.811061 11.684933 6.642124 -0.538181
Spine -14.103877 1.919682 0.167319
Head -7.232806 -6.831085 11.620316
LeftShoulder -12.604690 14.752731 27.104021
LeftArm 17.299316 -28.073763 -29.355957
LeftForeArm 12.731359 -0.000000 14.646852
LeftHand -24.153822 -0.000000 -10.212399
LeftHandThumb1 -26.253704 0.000000 33.147579
RightShoulder -21.166972 13.126518 -37.616985
RightArm -5.988516 7.845153 26.282470
RightForeArm -29.964407 -0.000000 14.327879
RightHand -9.837258 -0.000000 12.983636
RightHandThumb1 -24.326973 -0.000000 -32.862282
LeftUpLeg -6.801424 4.113638 1.676632
LeftLeg 0.263298 -0.000000 -0.000000
LeftFoot -10.014797 0.779201 -9.876872
LeftToeBase 9.748843 -0.000000 -0.000000
RightUpLeg -6.940324 -6.651918 0.977704
RightLeg 2.645476 -0.000000 -0.000000
RightFoot -9.790980 -4.894551 0.285238
RightToeBase -0.251371 -0.000000 0.000000
84
root -1.058752 32.954276 -2.809597 11.673644 6.629884 -0.537473
Spine -14.123375 1.923811 0.160827
Head -7.088854 -6.911056 11.632835
LeftShoulder -12.605802 14.681528 27.109523
LeftArm 17.279787 -28.129277 -29.331506
LeftForeArm 12.610336 -0.000000 14.658345
LeftHand -24.169268 -0.000000 -10.088400
LeftHandThumb1 -26.253704 0.000000 33.147579
RightShoulder -21.184075 13.210390 -37.630999
RightArm -5.974074 7.941121 26.228992
RightForeArm -29.565012 -0.000000 14.384320
RightHand -9.772006 -0.000000 12.830512
RightHandThumb1 -24.326973 -0.000000 -32.862282
LeftUpLeg -6.784958 4.113038 1.675660
LeftLeg 0.258311 -0.000000 -0.000000
LeftFoot -10.003268 0.795610 -9.848314
LeftToeBase 9.748014 -0.000000 -0.000000
RightUpLeg -6.929072 -6.671803 0.978004
RightLeg 2.647462 -0.000000 -0.000000
RightFoot -9.798011 -4.875979 0.269671
RightToeBase -0.192866 -0.000000 0.000000
85
root -1.058250 32.954705 -2.808004 11.666885 6.612067 -0.525357
Spine -14.136990 1.910381 0.150044
Head -6.963906 -6.981891 11.618896
LeftShoulder -12.636613 14.637748 27.110038
LeftArm 17.277608 -28.169437 -29.310230
LeftForeArm 12.342856 -0.000000 14.648819
LeftHand -24.140566 -0.000000 -9.889456
LeftHandThumb1 -26.253704 0.000000 33.147579
RightShoulder -21.216770 13.288269 -37.656630
RightArm -5.934432 8.129771 26.201888
RightForeArm -29.088152 -0.000000 14.488487
RightHand -9.713631 -0.000000 12.515033
RightHandThumb1 -24.326973 -0.000000 -32.862282
LeftUpLeg -6.771248 4.126582 1.656460
LeftLeg 0.266864 -0.000000 -0.000000
LeftFoot -10.002069 0.813173 -9.914496
LeftToeBase 9.675774 -0.000000 -0.000000
RightUpLeg -6.918069 -6.673708 0.962666
RightLeg 2.644009 -0.000000 -0.000000
RightFoot -9.798591 -4.858381 0.262506
RightToeBase -0.217803 -0.000000 0.000000
